<svg width="218" height="44" viewBox="0 0 218 44" fill="none" xmlns="http://www.w3.org/2000/svg">
<g opacity="0.5">
<path d="M0.000720183 41.6916C-0.0202869 42.2435 0.410075 42.7079 0.96196 42.7289L9.95545 43.0712C10.5073 43.0922 10.9718 42.6619 10.9928 42.11C11.0138 41.5581 10.5834 41.0937 10.0315 41.0727L2.03731 40.7684L2.3416 32.7742C2.36261 32.2223 1.93225 31.7579 1.38036 31.7369C0.828478 31.7159 0.364057 32.1462 0.34305 32.6981L0.000720183 41.6916ZM216.074 42.4631C216.479 42.8385 217.112 42.8144 217.487 42.4094C217.862 42.0043 217.838 41.3715 217.433 40.9962L216.074 42.4631ZM108.877 1.9214L108.877 2.9214L108.877 1.9214ZM6.11298 38.7612C6.5469 38.4196 6.62169 37.7908 6.28003 37.3569C5.93837 36.923 5.30964 36.8482 4.87572 37.1899L6.11298 38.7612ZM11.1809 32.5065C10.7291 32.8242 10.6204 33.448 10.938 33.8997C11.2557 34.3515 11.8795 34.4602 12.3312 34.1426L11.1809 32.5065ZM22.1091 27.7702C22.5818 27.4846 22.7334 26.8698 22.4478 26.3971C22.1622 25.9244 21.5475 25.7728 21.0748 26.0584L22.1091 27.7702ZM27.8916 22.1413C27.4069 22.406 27.2284 23.0135 27.4931 23.4982C27.7577 23.983 28.3652 24.1614 28.8499 23.8968L27.8916 22.1413ZM39.2718 18.6413C39.7727 18.4088 39.9905 17.8143 39.758 17.3133C39.5256 16.8123 38.931 16.5946 38.43 16.827L39.2718 18.6413ZM45.6436 13.6708C45.1328 13.881 44.8892 14.4654 45.0994 14.9761C45.3095 15.4869 45.8939 15.7305 46.4047 15.5203L45.6436 13.6708ZM57.3204 11.4493C57.8441 11.2739 58.1264 10.7072 57.9509 10.1835C57.7755 9.65981 57.2088 9.3775 56.6851 9.55293L57.3204 11.4493ZM64.2124 7.22156C63.6812 7.37276 63.3732 7.92594 63.5244 8.45712C63.6756 8.98831 64.2288 9.29635 64.76 9.14515L64.2124 7.22156ZM76.0712 6.3495C76.6117 6.23601 76.9579 5.70584 76.8444 5.16535C76.7309 4.62485 76.2007 4.2787 75.6602 4.39219L76.0712 6.3495ZM83.3929 2.96027C82.8476 3.04778 82.4765 3.56077 82.564 4.10608C82.6515 4.65139 83.1645 5.02251 83.7098 4.93501L83.3929 2.96027ZM95.2796 3.50796C95.8299 3.46044 96.2374 2.97586 96.1899 2.42563C96.1424 1.87539 95.6578 1.46785 95.1075 1.51537L95.2796 3.50796ZM102.974 1.03048C102.422 1.05088 101.991 1.51483 102.011 2.06674C102.032 2.61864 102.496 3.04952 103.047 3.02911L102.974 1.03048ZM114.706 3.02911C115.258 3.04951 115.722 2.61864 115.742 2.06674C115.763 1.51483 115.332 1.05088 114.78 1.03048L114.706 3.02911ZM122.646 1.51537C122.096 1.46785 121.611 1.87539 121.564 2.42563C121.516 2.97586 121.924 3.46044 122.474 3.50796L122.646 1.51537ZM134.044 4.93501C134.589 5.02251 135.102 4.65139 135.19 4.10608C135.277 3.56077 134.906 3.04778 134.361 2.96027L134.044 4.93501ZM142.093 4.39219C141.553 4.2787 141.023 4.62485 140.909 5.16535C140.796 5.70584 141.142 6.23601 141.682 6.34951L142.093 4.39219ZM152.994 9.14515C153.525 9.29635 154.078 8.98831 154.229 8.45713C154.38 7.92594 154.072 7.37276 153.541 7.22156L152.994 9.14515ZM161.069 9.55293C160.545 9.3775 159.978 9.65981 159.803 10.1835C159.627 10.7072 159.91 11.2739 160.433 11.4494L161.069 9.55293ZM171.349 15.5203C171.86 15.7305 172.444 15.4869 172.654 14.9761C172.864 14.4654 172.621 13.881 172.11 13.6708L171.349 15.5203ZM179.324 16.827C178.823 16.5946 178.228 16.8123 177.996 17.3133C177.763 17.8143 177.981 18.4088 178.482 18.6413L179.324 16.827ZM188.904 23.8968C189.388 24.1615 189.996 23.983 190.261 23.4983C190.525 23.0135 190.347 22.406 189.862 22.1414L188.904 23.8968ZM196.679 26.0584C196.206 25.7728 195.591 25.9245 195.306 26.3972C195.02 26.8698 195.172 27.4846 195.645 27.7702L196.679 26.0584ZM205.422 34.1426C205.874 34.4603 206.498 34.3515 206.816 33.8998C207.133 33.448 207.025 32.8242 206.573 32.5065L205.422 34.1426ZM212.878 37.1899C212.444 36.8482 211.815 36.923 211.474 37.3569C211.132 37.7909 211.207 38.4196 211.641 38.7612L212.878 37.1899ZM0.999997 41.7296C1.6797 42.4631 1.67965 42.4632 1.67961 42.4632C1.67961 42.4632 1.67957 42.4632 1.67956 42.4632C1.67954 42.4633 1.67954 42.4633 1.67957 42.4632C1.67962 42.4632 1.67977 42.4631 1.68001 42.4628C1.68049 42.4624 1.68134 42.4616 1.68257 42.4605C1.68504 42.4582 1.68901 42.4545 1.69447 42.4495C1.7054 42.4395 1.72232 42.424 1.74521 42.4032C1.79097 42.3615 1.86057 42.2986 1.95372 42.2154C2.14002 42.049 2.42051 41.8017 2.79297 41.4819C3.53789 40.8422 4.65054 39.9127 6.11298 38.7612L4.87572 37.1899C3.38971 38.3599 2.25518 39.3075 1.49004 39.9645C1.10746 40.293 0.817206 40.5489 0.62151 40.7237C0.523661 40.8111 0.449449 40.8782 0.399155 40.9239C0.374007 40.9468 0.354839 40.9644 0.341684 40.9764C0.335107 40.9825 0.330033 40.9871 0.326467 40.9904C0.324685 40.9921 0.323278 40.9934 0.32225 40.9943C0.321736 40.9948 0.321316 40.9952 0.32099 40.9955C0.320828 40.9957 0.320689 40.9958 0.320573 40.9959C0.320515 40.9959 0.320446 40.996 0.320418 40.996C0.320355 40.9961 0.320297 40.9961 0.999997 41.7296ZM12.3312 34.1426C15.094 32.1999 18.3648 30.0326 22.1091 27.7702L21.0748 26.0584C17.2879 28.3465 13.9785 30.5394 11.1809 32.5065L12.3312 34.1426ZM28.8499 23.8968C32.0701 22.1389 35.5489 20.3685 39.2718 18.6413L38.43 16.827C34.6655 18.5736 31.1477 20.3638 27.8916 22.1413L28.8499 23.8968ZM46.4047 15.5203C49.8716 14.0936 53.5134 12.7247 57.3204 11.4493L56.6851 9.55293C52.8336 10.8432 49.1499 12.2279 45.6436 13.6708L46.4047 15.5203ZM64.76 9.14515C68.4016 8.10856 72.1744 7.16777 76.0712 6.3495L75.6602 4.39219C71.7158 5.22046 67.8975 6.17263 64.2124 7.22156L64.76 9.14515ZM83.7098 4.93501C87.4656 4.33232 91.3241 3.84954 95.2796 3.50796L95.1075 1.51537C91.1021 1.86127 87.1954 2.3501 83.3929 2.96027L83.7098 4.93501ZM103.047 3.02911C104.97 2.95805 106.913 2.9214 108.877 2.9214L108.877 0.921396C106.888 0.921396 104.92 0.95851 102.974 1.03048L103.047 3.02911ZM108.877 2.9214C110.84 2.9214 112.784 2.95805 114.706 3.02911L114.78 1.03048C112.833 0.95851 110.865 0.921396 108.877 0.921396L108.877 2.9214ZM122.474 3.50796C126.43 3.84954 130.288 4.33232 134.044 4.93501L134.361 2.96027C130.558 2.3501 126.652 1.86127 122.646 1.51537L122.474 3.50796ZM141.682 6.34951C145.579 7.16778 149.352 8.10857 152.994 9.14515L153.541 7.22156C149.856 6.17264 146.038 5.22047 142.093 4.39219L141.682 6.34951ZM160.433 11.4494C164.24 12.7247 167.882 14.0936 171.349 15.5203L172.11 13.6708C168.604 12.2279 164.92 10.8432 161.069 9.55293L160.433 11.4494ZM178.482 18.6413C182.205 20.3685 185.684 22.1389 188.904 23.8968L189.862 22.1414C186.606 20.3638 183.088 18.5736 179.324 16.827L178.482 18.6413ZM195.645 27.7702C199.389 30.0326 202.66 32.1999 205.422 34.1426L206.573 32.5065C203.775 30.5394 200.466 28.3465 196.679 26.0584L195.645 27.7702ZM211.641 38.7612C213.103 39.9127 214.216 40.8422 214.961 41.4819C215.333 41.8017 215.614 42.049 215.8 42.2154C215.893 42.2986 215.963 42.3615 216.008 42.4032C216.031 42.424 216.048 42.4395 216.059 42.4495C216.065 42.4546 216.069 42.4582 216.071 42.4605C216.072 42.4616 216.073 42.4624 216.074 42.4629C216.074 42.4631 216.074 42.4632 216.074 42.4633C216.074 42.4633 216.074 42.4633 216.074 42.4633C216.074 42.4633 216.074 42.4632 216.074 42.4632C216.074 42.4632 216.074 42.4631 216.754 41.7297C217.433 40.9962 217.433 40.9961 217.433 40.996C217.433 40.996 217.433 40.996 217.433 40.9959C217.433 40.9958 217.433 40.9957 217.433 40.9955C217.432 40.9952 217.432 40.9948 217.431 40.9944C217.43 40.9934 217.429 40.9921 217.427 40.9905C217.424 40.9872 217.419 40.9825 217.412 40.9765C217.399 40.9644 217.38 40.9468 217.354 40.9239C217.304 40.8782 217.23 40.8111 217.132 40.7237C216.936 40.5489 216.646 40.293 216.264 39.9645C215.498 39.3075 214.364 38.3599 212.878 37.1899L211.641 38.7612Z" fill="#0A65CC"/>
</g>
</svg>
