<svg width="218" height="43" viewBox="0 0 218 43" fill="none" xmlns="http://www.w3.org/2000/svg">
<g opacity="0.5">
<path d="M0.000720183 2.15118C-0.0202869 1.59929 0.410075 1.13487 0.96196 1.11386L9.95545 0.771537C10.5073 0.750529 10.9718 1.18089 10.9928 1.73278C11.0138 2.28466 10.5834 2.74908 10.0315 2.77009L2.03731 3.07438L2.3416 11.0686C2.36261 11.6205 1.93225 12.0849 1.38036 12.1059C0.828478 12.1269 0.364057 11.6966 0.34305 11.1447L0.000720183 2.15118ZM216.074 1.37963C216.479 1.00424 217.112 1.02833 217.487 1.43342C217.862 1.83852 217.838 2.47123 217.433 2.84661L216.074 1.37963ZM108.877 41.9214L108.877 40.9214L108.877 41.9214ZM6.11298 5.08155C6.5469 5.42321 6.62169 6.05194 6.28003 6.48587C5.93837 6.91978 5.30964 6.99458 4.87572 6.65292L6.11298 5.08155ZM11.1809 11.3362C10.7291 11.0186 10.6204 10.3948 10.938 9.94304C11.2557 9.49126 11.8795 9.38253 12.3312 9.7002L11.1809 11.3362ZM22.1091 16.0726C22.5818 16.3582 22.7334 16.9729 22.4478 17.4456C22.1622 17.9183 21.5475 18.07 21.0748 17.7844L22.1091 16.0726ZM27.8916 21.7014C27.4069 21.4368 27.2284 20.8293 27.4931 20.3445C27.7577 19.8598 28.3652 19.6813 28.8499 19.946L27.8916 21.7014ZM39.2718 25.2015C39.7727 25.4339 39.9905 26.0285 39.758 26.5295C39.5256 27.0305 38.931 27.2482 38.43 27.0158L39.2718 25.2015ZM45.6436 30.172C45.1328 29.9618 44.8892 29.3774 45.0994 28.8666C45.3095 28.3559 45.8939 28.1123 46.4047 28.3224L45.6436 30.172ZM57.3204 32.3934C57.8441 32.5689 58.1264 33.1356 57.9509 33.6593C57.7755 34.183 57.2088 34.4653 56.6851 34.2898L57.3204 32.3934ZM64.2124 36.6212C63.6812 36.47 63.3732 35.9168 63.5244 35.3856C63.6756 34.8545 64.2288 34.5464 64.76 34.6976L64.2124 36.6212ZM76.0712 37.4933C76.6117 37.6068 76.9579 38.1369 76.8444 38.6774C76.7309 39.2179 76.2007 39.5641 75.6602 39.4506L76.0712 37.4933ZM83.3929 40.8825C82.8476 40.795 82.4765 40.282 82.564 39.7367C82.6515 39.1914 83.1645 38.8203 83.7098 38.9078L83.3929 40.8825ZM95.2796 40.3348C95.8299 40.3823 96.2374 40.8669 96.1899 41.4171C96.1424 41.9674 95.6578 42.3749 95.1075 42.3274L95.2796 40.3348ZM102.974 42.8123C102.422 42.7919 101.991 42.3279 102.011 41.776C102.032 41.2241 102.496 40.7933 103.047 40.8137L102.974 42.8123ZM114.706 40.8137C115.258 40.7933 115.722 41.2241 115.742 41.776C115.763 42.3279 115.332 42.7919 114.78 42.8123L114.706 40.8137ZM122.646 42.3274C122.096 42.3749 121.611 41.9674 121.564 41.4171C121.516 40.8669 121.924 40.3823 122.474 40.3348L122.646 42.3274ZM134.044 38.9078C134.589 38.8203 135.102 39.1914 135.19 39.7367C135.277 40.282 134.906 40.795 134.361 40.8825L134.044 38.9078ZM142.093 39.4506C141.553 39.5641 141.023 39.2179 140.909 38.6774C140.796 38.1369 141.142 37.6068 141.682 37.4933L142.093 39.4506ZM152.994 34.6976C153.525 34.5464 154.078 34.8545 154.229 35.3856C154.38 35.9168 154.072 36.47 153.541 36.6212L152.994 34.6976ZM161.069 34.2898C160.545 34.4653 159.978 34.183 159.803 33.6593C159.627 33.1356 159.91 32.5689 160.433 32.3934L161.069 34.2898ZM171.349 28.3224C171.86 28.1123 172.444 28.3559 172.654 28.8666C172.864 29.3774 172.621 29.9618 172.11 30.1719L171.349 28.3224ZM179.324 27.0157C178.823 27.2482 178.228 27.0305 177.996 26.5295C177.763 26.0285 177.981 25.4339 178.482 25.2015L179.324 27.0157ZM188.904 19.946C189.388 19.6813 189.996 19.8598 190.261 20.3445C190.525 20.8293 190.347 21.4368 189.862 21.7014L188.904 19.946ZM196.679 17.7844C196.206 18.07 195.591 17.9183 195.306 17.4456C195.02 16.9729 195.172 16.3582 195.645 16.0726L196.679 17.7844ZM205.422 9.70018C205.874 9.38251 206.498 9.49123 206.816 9.94302C207.133 10.3948 207.025 11.0186 206.573 11.3362L205.422 9.70018ZM212.878 6.65289C212.444 6.99455 211.815 6.91976 211.474 6.48584C211.132 6.05192 211.207 5.42319 211.641 5.08153L212.878 6.65289ZM0.999997 2.11314C1.6797 1.37965 1.67965 1.37961 1.67961 1.37957C1.67961 1.37957 1.67957 1.37954 1.67956 1.37952C1.67954 1.37951 1.67954 1.37951 1.67957 1.37953C1.67962 1.37958 1.67977 1.37971 1.68001 1.37994C1.68049 1.38038 1.68134 1.38117 1.68257 1.38231C1.68504 1.38458 1.68901 1.38824 1.69447 1.39325C1.7054 1.40329 1.72232 1.41879 1.74521 1.43961C1.79097 1.48125 1.86057 1.5442 1.95372 1.62739C2.14002 1.79377 2.42051 2.0411 2.79297 2.36092C3.53789 3.00057 4.65054 3.93005 6.11298 5.08155L4.87572 6.65292C3.38971 5.48286 2.25518 4.53529 1.49004 3.87828C1.10746 3.54977 0.817206 3.29388 0.62151 3.11911C0.523661 3.03172 0.449449 2.96461 0.399155 2.91885C0.374007 2.89597 0.354839 2.87842 0.341684 2.86634C0.335107 2.8603 0.330033 2.85563 0.326467 2.85233C0.324685 2.85069 0.323278 2.84939 0.32225 2.84844C0.321736 2.84797 0.321316 2.84758 0.32099 2.84727C0.320828 2.84712 0.320689 2.847 0.320573 2.84689C0.320515 2.84683 0.320446 2.84677 0.320418 2.84674C0.320355 2.84668 0.320297 2.84663 0.999997 2.11314ZM12.3312 9.7002C15.094 11.6428 18.3648 13.8102 22.1091 16.0726L21.0748 17.7844C17.2879 15.4963 13.9785 13.3034 11.1809 11.3362L12.3312 9.7002ZM28.8499 19.946C32.0701 21.7039 35.5489 23.4743 39.2718 25.2015L38.43 27.0158C34.6655 25.2692 31.1477 23.479 27.8916 21.7014L28.8499 19.946ZM46.4047 28.3224C49.8716 29.7492 53.5134 31.1181 57.3204 32.3934L56.6851 34.2898C52.8336 32.9996 49.1499 31.6149 45.6436 30.172L46.4047 28.3224ZM64.76 34.6976C68.4016 35.7342 72.1744 36.675 76.0712 37.4933L75.6602 39.4506C71.7158 38.6223 67.8975 37.6701 64.2124 36.6212L64.76 34.6976ZM83.7098 38.9078C87.4656 39.5105 91.3241 39.9932 95.2796 40.3348L95.1075 42.3274C91.1021 41.9815 87.1954 41.4927 83.3929 40.8825L83.7098 38.9078ZM103.047 40.8137C104.97 40.8847 106.913 40.9214 108.877 40.9214L108.877 42.9214C106.888 42.9214 104.92 42.8843 102.974 42.8123L103.047 40.8137ZM108.877 40.9214C110.84 40.9214 112.784 40.8847 114.706 40.8137L114.78 42.8123C112.833 42.8843 110.865 42.9214 108.877 42.9214L108.877 40.9214ZM122.474 40.3348C126.43 39.9932 130.288 39.5105 134.044 38.9078L134.361 40.8825C130.558 41.4927 126.652 41.9815 122.646 42.3274L122.474 40.3348ZM141.682 37.4933C145.579 36.675 149.352 35.7342 152.994 34.6976L153.541 36.6212C149.856 37.6701 146.038 38.6223 142.093 39.4506L141.682 37.4933ZM160.433 32.3934C164.24 31.1181 167.882 29.7492 171.349 28.3224L172.11 30.1719C168.604 31.6149 164.92 32.9996 161.069 34.2898L160.433 32.3934ZM178.482 25.2015C182.205 23.4743 185.684 21.7039 188.904 19.946L189.862 21.7014C186.606 23.479 183.088 25.2692 179.324 27.0157L178.482 25.2015ZM195.645 16.0726C199.389 13.8102 202.66 11.6428 205.422 9.70018L206.573 11.3362C203.775 13.3034 200.466 15.4963 196.679 17.7844L195.645 16.0726ZM211.641 5.08153C213.103 3.93002 214.216 3.00055 214.961 2.3609C215.333 2.04108 215.614 1.79375 215.8 1.62737C215.893 1.54418 215.963 1.48124 216.008 1.43959C216.031 1.41877 216.048 1.40327 216.059 1.39323C216.065 1.38822 216.069 1.38456 216.071 1.38229C216.072 1.38115 216.073 1.38036 216.074 1.37992C216.074 1.3797 216.074 1.37956 216.074 1.37951C216.074 1.37949 216.074 1.37949 216.074 1.37951C216.074 1.37952 216.074 1.37955 216.074 1.37955C216.074 1.37959 216.074 1.37963 216.754 2.11312C217.433 2.84661 217.433 2.84666 217.433 2.84673C217.433 2.84675 217.433 2.84681 217.433 2.84687C217.433 2.84697 217.433 2.8471 217.433 2.84726C217.432 2.84756 217.432 2.84795 217.431 2.84842C217.43 2.84937 217.429 2.85067 217.427 2.85231C217.424 2.85561 217.419 2.86028 217.412 2.86632C217.399 2.8784 217.38 2.89595 217.354 2.91883C217.304 2.9646 217.23 3.0317 217.132 3.11909C216.936 3.29386 216.646 3.54975 216.264 3.87826C215.498 4.53527 214.364 5.48283 212.878 6.65289L211.641 5.08153Z" fill="#0A65CC"/>
</g>
</svg>
