<svg width="32" height="33" viewBox="0 0 32 33" fill="none" xmlns="http://www.w3.org/2000/svg">
<g clip-path="url(#clip0_78_11468)">
<path opacity="0.2" d="M6.80761 26.1138C5.65711 24.9633 6.42019 22.5478 5.8346 21.1325C5.22755 19.6653 3 18.4845 3 16.9213C3 15.3582 5.22756 14.1774 5.8346 12.7102C6.4202 11.2949 5.65711 8.8795 6.80761 7.729C7.95811 6.5785 10.3735 7.34158 11.7889 6.75598C13.256 6.14893 14.4369 3.92139 16 3.92139C17.5632 3.92139 18.744 6.14895 20.2112 6.75599C21.6265 7.34159 24.0419 6.5785 25.1924 7.729C26.3429 8.8795 25.5798 11.2949 26.1654 12.7102C26.7725 14.1774 29 15.3583 29 16.9214C29 18.4846 26.7724 19.6654 26.1654 21.1325C25.5798 22.5479 26.3429 24.9633 25.1924 26.1138C24.0419 27.2643 21.6265 26.5012 20.2111 27.0868C18.744 27.6938 17.5631 29.9214 16 29.9214C14.4368 29.9214 13.256 27.6938 11.7888 27.0868C10.3735 26.5012 7.95811 27.2643 6.80761 26.1138Z" fill="#0A65CC"/>
<path d="M6.80761 26.1138C5.65711 24.9633 6.42019 22.5478 5.8346 21.1325C5.22755 19.6653 3 18.4845 3 16.9213C3 15.3582 5.22756 14.1774 5.8346 12.7102C6.4202 11.2949 5.65711 8.8795 6.80761 7.729C7.95811 6.5785 10.3735 7.34158 11.7889 6.75598C13.256 6.14893 14.4369 3.92139 16 3.92139C17.5632 3.92139 18.744 6.14895 20.2112 6.75599C21.6265 7.34159 24.0419 6.5785 25.1924 7.729C26.3429 8.8795 25.5798 11.2949 26.1654 12.7102C26.7725 14.1774 29 15.3583 29 16.9214C29 18.4846 26.7724 19.6654 26.1654 21.1325C25.5798 22.5479 26.3429 24.9633 25.1924 26.1138C24.0419 27.2643 21.6265 26.5012 20.2111 27.0868C18.744 27.6938 17.5631 29.9214 16 29.9214C14.4368 29.9214 13.256 27.6938 11.7888 27.0868C10.3735 26.5012 7.95811 27.2643 6.80761 26.1138Z" stroke="#0A65CC" stroke-width="2" stroke-linecap="round" stroke-linejoin="round"/>
<path d="M21.5 13.9214L14.1666 20.9214L10.5 17.4214" stroke="#0A65CC" stroke-width="2" stroke-linecap="round" stroke-linejoin="round"/>
</g>
<defs>
<clipPath id="clip0_78_11468">
<rect width="32" height="32" fill="white" transform="translate(0 0.921387)"/>
</clipPath>
</defs>
</svg>
