<svg width="32" height="32" viewBox="0 0 32 32" fill="none" xmlns="http://www.w3.org/2000/svg">
<g clip-path="url(#clip0_78_11478)">
<path opacity="0.2" d="M10 15.9981C10 14.0202 10.5865 12.0868 11.6853 10.4423C12.7841 8.79786 14.3459 7.51613 16.1732 6.75926C18.0005 6.00238 20.0111 5.80435 21.9509 6.1902C23.8907 6.57605 25.6726 7.52846 27.0711 8.92698C28.4696 10.3255 29.422 12.1073 29.8079 14.0471C30.1937 15.987 29.9957 17.9976 29.2388 19.8249C28.482 21.6521 27.2002 23.2139 25.5557 24.3127C23.9112 25.4116 21.9778 25.9981 20 25.9981H9.00003C8.00733 25.9971 7.02618 25.785 6.12172 25.3758C5.21725 24.9667 4.41016 24.3698 3.754 23.6249C3.09785 22.88 2.60764 22.004 2.31591 21.0551C2.02419 20.1063 1.93762 19.1062 2.06196 18.1213C2.1863 17.1364 2.51869 16.1892 3.03708 15.3426C3.55548 14.496 4.24801 13.7694 5.06871 13.2109C5.88942 12.6524 6.81952 12.2749 7.79729 12.1033C8.77506 11.9318 9.77814 11.9702 10.7399 12.216" fill="#0A65CC"/>
<path d="M11.9993 25.998H8.9993C8.0066 25.9971 7.02545 25.785 6.12099 25.3758C5.21652 24.9667 4.40943 24.3698 3.75327 23.6249C3.09711 22.88 2.60691 22.004 2.31518 21.0551C2.02346 20.1063 1.93689 19.1062 2.06123 18.1213C2.18556 17.1364 2.51796 16.1892 3.03635 15.3426C3.55474 14.496 4.24727 13.7694 5.06798 13.2109C5.88868 12.6524 6.81879 12.2749 7.79656 12.1033C8.77433 11.9318 9.77741 11.9702 10.7392 12.216" stroke="#0A65CC" stroke-width="2" stroke-linecap="round" stroke-linejoin="round"/>
<path d="M9.99927 15.998C9.99942 14.4136 10.3761 12.8518 11.0982 11.4415C11.8203 10.0312 12.8672 8.81262 14.1527 7.88625C15.4381 6.95988 16.9253 6.35221 18.4916 6.11333C20.0579 5.87445 21.6586 6.01118 23.1618 6.51227C24.6649 7.01335 26.0275 7.86445 27.1372 8.99541C28.2468 10.1264 29.0719 11.5048 29.5444 13.0172C30.0168 14.5296 30.1231 16.1326 29.8546 17.6941C29.586 19.2557 28.9502 20.731 27.9996 21.9986" stroke="#0A65CC" stroke-width="2" stroke-linecap="round" stroke-linejoin="round"/>
<path d="M14.7566 20.2408L18.9992 15.998L23.2418 20.2408" stroke="#0A65CC" stroke-width="2" stroke-linecap="round" stroke-linejoin="round"/>
<path d="M18.9993 25.998V15.998" stroke="#0A65CC" stroke-width="2" stroke-linecap="round" stroke-linejoin="round"/>
</g>
<defs>
<clipPath id="clip0_78_11478">
<rect width="32" height="32" fill="white"/>
</clipPath>
</defs>
</svg>
