<svg width="32" height="33" viewBox="0 0 32 33" fill="none" xmlns="http://www.w3.org/2000/svg">
<g clip-path="url(#clip0_78_11490)">
<path opacity="0.2" d="M14.4993 25.9209C20.2983 25.9209 24.9993 21.2199 24.9993 15.4209C24.9993 9.62191 20.2983 4.9209 14.4993 4.9209C8.70028 4.9209 3.99927 9.62191 3.99927 15.4209C3.99927 21.2199 8.70028 25.9209 14.4993 25.9209Z" fill="#0A65CC"/>
<path d="M10.4993 15.4214H18.4993" stroke="#0A65CC" stroke-width="2" stroke-linecap="round" stroke-linejoin="round"/>
<path d="M14.4993 11.4214V19.4214" stroke="#0A65CC" stroke-width="2" stroke-linecap="round" stroke-linejoin="round"/>
<path d="M14.4993 25.9209C20.2983 25.9209 24.9993 21.2199 24.9993 15.4209C24.9993 9.62191 20.2983 4.9209 14.4993 4.9209C8.70028 4.9209 3.99927 9.62191 3.99927 15.4209C3.99927 21.2199 8.70028 25.9209 14.4993 25.9209Z" stroke="#0A65CC" stroke-width="2" stroke-linecap="round" stroke-linejoin="round"/>
<path d="M21.9236 22.8457L27.9987 28.9208" stroke="#0A65CC" stroke-width="2" stroke-linecap="round" stroke-linejoin="round"/>
</g>
<defs>
<clipPath id="clip0_78_11490">
<rect width="32" height="32" fill="white" transform="translate(0 0.921387)"/>
</clipPath>
</defs>
</svg>
